<mxfile host="65bd71144e">
    <diagram id="kR8Rk-Sym4I4teVI_Am-" name="検索機能">
        <mxGraphModel dx="1820" dy="1198" grid="1" gridSize="10" guides="1" tooltips="1" connect="1" arrows="1" fold="1" page="1" pageScale="1" pageWidth="827" pageHeight="1169" math="0" shadow="0">
            <root>
                <mxCell id="0"/>
                <mxCell id="1" parent="0"/>
                <mxCell id="13" style="edgeStyle=none;html=1;exitX=0.5;exitY=1;exitDx=0;exitDy=0;entryX=0.5;entryY=0;entryDx=0;entryDy=0;" parent="1" source="8" target="16" edge="1">
                    <mxGeometry relative="1" as="geometry"/>
                </mxCell>
                <mxCell id="8" value="&lt;h4&gt;CLIを起動する&lt;/h4&gt;" style="rounded=1;whiteSpace=wrap;html=1;" parent="1" vertex="1">
                    <mxGeometry x="120" y="85" width="160" height="60" as="geometry"/>
                </mxCell>
                <mxCell id="12" value="&lt;b&gt;ログインをする&lt;/b&gt;" style="rounded=0;whiteSpace=wrap;html=1;" parent="1" vertex="1">
                    <mxGeometry x="380" y="85" width="160" height="60" as="geometry"/>
                </mxCell>
                <mxCell id="20" value="" style="edgeStyle=none;html=1;" parent="1" source="16" edge="1">
                    <mxGeometry relative="1" as="geometry">
                        <mxPoint x="200.0000000000001" y="285" as="targetPoint"/>
                    </mxGeometry>
                </mxCell>
                <mxCell id="23" style="edgeStyle=none;html=1;exitX=1;exitY=0.5;exitDx=0;exitDy=0;entryX=0.5;entryY=0;entryDx=0;entryDy=0;" parent="1" source="16" edge="1">
                    <mxGeometry relative="1" as="geometry">
                        <mxPoint x="680" y="285" as="targetPoint"/>
                        <Array as="points">
                            <mxPoint x="440" y="215"/>
                            <mxPoint x="680" y="215"/>
                        </Array>
                    </mxGeometry>
                </mxCell>
                <mxCell id="16" value="&lt;b&gt;ホーム画面へ遷移&lt;/b&gt;" style="rounded=1;whiteSpace=wrap;html=1;" parent="1" vertex="1">
                    <mxGeometry x="120" y="185" width="160" height="60" as="geometry"/>
                </mxCell>
                <mxCell id="29" value="" style="edgeStyle=none;html=1;" parent="1" source="26" target="28" edge="1">
                    <mxGeometry relative="1" as="geometry"/>
                </mxCell>
                <mxCell id="26" value="&lt;b&gt;検索機能を起動&lt;/b&gt;" style="rounded=0;whiteSpace=wrap;html=1;" parent="1" vertex="1">
                    <mxGeometry x="120" y="285" width="160" height="60" as="geometry"/>
                </mxCell>
                <mxCell id="27" value="&lt;b&gt;お気に入り機能を起動&lt;/b&gt;" style="rounded=0;whiteSpace=wrap;html=1;" parent="1" vertex="1">
                    <mxGeometry x="360" y="285" width="160" height="60" as="geometry"/>
                </mxCell>
                <mxCell id="31" value="" style="edgeStyle=none;html=1;" parent="1" source="28" target="30" edge="1">
                    <mxGeometry relative="1" as="geometry"/>
                </mxCell>
                <mxCell id="28" value="&lt;h6&gt;&lt;span style=&quot;font-size: 8.04px;&quot;&gt;場所を入力してください&lt;/span&gt;&lt;br&gt;&lt;/h6&gt;" style="rhombus;whiteSpace=wrap;html=1;" parent="1" vertex="1">
                    <mxGeometry x="120" y="385" width="160" height="80" as="geometry"/>
                </mxCell>
                <mxCell id="35" value="" style="edgeStyle=none;html=1;" parent="1" source="30" target="34" edge="1">
                    <mxGeometry relative="1" as="geometry"/>
                </mxCell>
                <mxCell id="30" value="&lt;h6&gt;ジャンルを選択してください&lt;/h6&gt;" style="rhombus;whiteSpace=wrap;html=1;" parent="1" vertex="1">
                    <mxGeometry x="120" y="505" width="160" height="80" as="geometry"/>
                </mxCell>
                <mxCell id="33" value="入力" style="text;html=1;align=center;verticalAlign=middle;resizable=0;points=[];autosize=1;strokeColor=none;fillColor=none;" parent="1" vertex="1">
                    <mxGeometry x="200" y="465" width="50" height="30" as="geometry"/>
                </mxCell>
                <mxCell id="38" value="" style="edgeStyle=none;html=1;" parent="1" source="34" target="37" edge="1">
                    <mxGeometry relative="1" as="geometry"/>
                </mxCell>
                <mxCell id="34" value="&lt;b&gt;検索結果をリスト表示&lt;/b&gt;" style="rounded=0;whiteSpace=wrap;html=1;align=center;" parent="1" vertex="1">
                    <mxGeometry x="120" y="625" width="160" height="60" as="geometry"/>
                </mxCell>
                <mxCell id="36" value="入力" style="text;html=1;align=center;verticalAlign=middle;resizable=0;points=[];autosize=1;strokeColor=none;fillColor=none;" parent="1" vertex="1">
                    <mxGeometry x="200" y="585" width="50" height="30" as="geometry"/>
                </mxCell>
                <mxCell id="43" value="" style="edgeStyle=none;html=1;" parent="1" edge="1">
                    <mxGeometry relative="1" as="geometry">
                        <Array as="points">
                            <mxPoint x="200" y="795"/>
                            <mxPoint x="200" y="815"/>
                            <mxPoint x="200" y="805"/>
                        </Array>
                        <mxPoint x="200" y="785" as="sourcePoint"/>
                        <mxPoint x="200" y="825" as="targetPoint"/>
                    </mxGeometry>
                </mxCell>
                <mxCell id="37" value="&lt;b&gt;候補店舗を選択&lt;/b&gt;" style="rounded=0;whiteSpace=wrap;html=1;align=center;" parent="1" vertex="1">
                    <mxGeometry x="120" y="725" width="160" height="60" as="geometry"/>
                </mxCell>
                <mxCell id="41" value="退出" style="text;html=1;align=center;verticalAlign=middle;resizable=0;points=[];autosize=1;strokeColor=none;fillColor=none;" parent="1" vertex="1">
                    <mxGeometry x="60" y="1035" width="50" height="30" as="geometry"/>
                </mxCell>
                <mxCell id="51" style="edgeStyle=none;html=1;entryX=0;entryY=0.5;entryDx=0;entryDy=0;exitX=0.505;exitY=1.026;exitDx=0;exitDy=0;exitPerimeter=0;" parent="1" source="_1jtNK55mZ0hNxfgrmTe-59" target="16" edge="1">
                    <mxGeometry relative="1" as="geometry">
                        <mxPoint x="40" y="965" as="targetPoint"/>
                        <Array as="points">
                            <mxPoint x="200" y="1085"/>
                            <mxPoint x="120" y="1085"/>
                            <mxPoint x="40" y="1085"/>
                            <mxPoint x="40" y="965"/>
                            <mxPoint x="40" y="815"/>
                            <mxPoint x="40" y="664"/>
                            <mxPoint x="40" y="215"/>
                        </Array>
                        <mxPoint x="200" y="1045" as="sourcePoint"/>
                    </mxGeometry>
                </mxCell>
                <mxCell id="KiKZV43gMIV1cnuspN1B-59" value="" style="endArrow=classic;html=1;entryX=0.5;entryY=0;entryDx=0;entryDy=0;" parent="1" target="27" edge="1">
                    <mxGeometry width="50" height="50" relative="1" as="geometry">
                        <mxPoint x="440" y="215" as="sourcePoint"/>
                        <mxPoint x="490" y="165" as="targetPoint"/>
                    </mxGeometry>
                </mxCell>
                <mxCell id="jABlIZs8kf6wU6cSvbs9-58" value="&lt;h4&gt;CLIを終了する&lt;/h4&gt;" style="rounded=1;whiteSpace=wrap;html=1;" parent="1" vertex="1">
                    <mxGeometry x="600" y="285" width="165" height="60" as="geometry"/>
                </mxCell>
                <mxCell id="_1jtNK55mZ0hNxfgrmTe-58" value="&lt;h6&gt;お気に入りに追加しますか&lt;/h6&gt;" style="rhombus;whiteSpace=wrap;html=1;" vertex="1" parent="1">
                    <mxGeometry x="120" y="825" width="160" height="80" as="geometry"/>
                </mxCell>
                <mxCell id="_1jtNK55mZ0hNxfgrmTe-59" value="&lt;h6&gt;お気に入りに追加しますか&lt;/h6&gt;" style="rhombus;whiteSpace=wrap;html=1;" vertex="1" parent="1">
                    <mxGeometry x="120" y="945" width="160" height="80" as="geometry"/>
                </mxCell>
                <mxCell id="_1jtNK55mZ0hNxfgrmTe-60" value="" style="edgeStyle=none;html=1;" edge="1" parent="1">
                    <mxGeometry relative="1" as="geometry">
                        <Array as="points">
                            <mxPoint x="200" y="915"/>
                            <mxPoint x="200" y="935"/>
                            <mxPoint x="200" y="925"/>
                        </Array>
                        <mxPoint x="200" y="905" as="sourcePoint"/>
                        <mxPoint x="200" y="945" as="targetPoint"/>
                    </mxGeometry>
                </mxCell>
                <mxCell id="j8rrw2CsK2qS5FY6JdOG-51" value="はい・いいえ" style="text;html=1;align=center;verticalAlign=middle;resizable=0;points=[];autosize=1;strokeColor=none;fillColor=none;" vertex="1" parent="1">
                    <mxGeometry x="200" y="1025" width="100" height="30" as="geometry"/>
                </mxCell>
                <mxCell id="j8rrw2CsK2qS5FY6JdOG-52" value="はい・いいえ" style="text;html=1;align=center;verticalAlign=middle;resizable=0;points=[];autosize=1;strokeColor=none;fillColor=none;" vertex="1" parent="1">
                    <mxGeometry x="200" y="905" width="100" height="30" as="geometry"/>
                </mxCell>
            </root>
        </mxGraphModel>
    </diagram>
    <diagram name="お気に入り機能" id="drYywMHXbu5hPvQo5M0N">
        <mxGraphModel dx="1392" dy="916" grid="1" gridSize="10" guides="1" tooltips="1" connect="1" arrows="1" fold="1" page="1" pageScale="1" pageWidth="827" pageHeight="1169" math="0" shadow="0">
            <root>
                <mxCell id="BatHTG7nTybJTFZMMwU--0"/>
                <mxCell id="BatHTG7nTybJTFZMMwU--1" parent="BatHTG7nTybJTFZMMwU--0"/>
                <mxCell id="BatHTG7nTybJTFZMMwU--3" value="&lt;h4&gt;CLIを起動する&lt;/h4&gt;" style="rounded=1;whiteSpace=wrap;html=1;" parent="BatHTG7nTybJTFZMMwU--1" vertex="1">
                    <mxGeometry x="120" y="80" width="160" height="60" as="geometry"/>
                </mxCell>
                <mxCell id="BatHTG7nTybJTFZMMwU--4" style="edgeStyle=none;html=1;entryX=0.5;entryY=0;entryDx=0;entryDy=0;" parent="BatHTG7nTybJTFZMMwU--1" target="BatHTG7nTybJTFZMMwU--8" edge="1">
                    <mxGeometry relative="1" as="geometry">
                        <mxPoint x="200" y="140" as="sourcePoint"/>
                    </mxGeometry>
                </mxCell>
                <mxCell id="BatHTG7nTybJTFZMMwU--5" value="&lt;b&gt;ログインをする&lt;/b&gt;" style="rounded=0;whiteSpace=wrap;html=1;" parent="BatHTG7nTybJTFZMMwU--1" vertex="1">
                    <mxGeometry x="380" y="80" width="160" height="60" as="geometry"/>
                </mxCell>
                <mxCell id="BatHTG7nTybJTFZMMwU--6" value="" style="edgeStyle=none;html=1;" parent="BatHTG7nTybJTFZMMwU--1" source="BatHTG7nTybJTFZMMwU--8" edge="1">
                    <mxGeometry relative="1" as="geometry">
                        <mxPoint x="200.0000000000001" y="280" as="targetPoint"/>
                    </mxGeometry>
                </mxCell>
                <mxCell id="BatHTG7nTybJTFZMMwU--7" style="edgeStyle=none;html=1;exitX=1;exitY=0.5;exitDx=0;exitDy=0;entryX=0.5;entryY=0;entryDx=0;entryDy=0;" parent="BatHTG7nTybJTFZMMwU--1" source="BatHTG7nTybJTFZMMwU--8" edge="1">
                    <mxGeometry relative="1" as="geometry">
                        <mxPoint x="680" y="280" as="targetPoint"/>
                        <Array as="points">
                            <mxPoint x="440" y="210"/>
                            <mxPoint x="680" y="210"/>
                        </Array>
                    </mxGeometry>
                </mxCell>
                <mxCell id="BatHTG7nTybJTFZMMwU--8" value="&lt;b&gt;ホーム画面へ遷移&lt;/b&gt;" style="rounded=1;whiteSpace=wrap;html=1;" parent="BatHTG7nTybJTFZMMwU--1" vertex="1">
                    <mxGeometry x="120" y="180" width="160" height="60" as="geometry"/>
                </mxCell>
                <mxCell id="PtVGrexAbRy5n7BiZR-B-0" value="" style="edgeStyle=none;html=1;" parent="BatHTG7nTybJTFZMMwU--1" source="BatHTG7nTybJTFZMMwU--10" target="fFYv5AN2ROY5ySec23VN-0" edge="1">
                    <mxGeometry relative="1" as="geometry"/>
                </mxCell>
                <mxCell id="BatHTG7nTybJTFZMMwU--10" value="&lt;b&gt;お気に入り機能の起動&lt;/b&gt;" style="rounded=0;whiteSpace=wrap;html=1;" parent="BatHTG7nTybJTFZMMwU--1" vertex="1">
                    <mxGeometry x="120" y="280" width="160" height="60" as="geometry"/>
                </mxCell>
                <mxCell id="BatHTG7nTybJTFZMMwU--11" value="検索機能の起動" style="rounded=0;whiteSpace=wrap;html=1;" parent="BatHTG7nTybJTFZMMwU--1" vertex="1">
                    <mxGeometry x="360" y="280" width="160" height="60" as="geometry"/>
                </mxCell>
                <mxCell id="BatHTG7nTybJTFZMMwU--35" value="" style="endArrow=classic;html=1;entryX=0.5;entryY=0;entryDx=0;entryDy=0;" parent="BatHTG7nTybJTFZMMwU--1" target="BatHTG7nTybJTFZMMwU--11" edge="1">
                    <mxGeometry width="50" height="50" relative="1" as="geometry">
                        <mxPoint x="440" y="210" as="sourcePoint"/>
                        <mxPoint x="490" y="160" as="targetPoint"/>
                    </mxGeometry>
                </mxCell>
                <mxCell id="BatHTG7nTybJTFZMMwU--36" value="&lt;h4&gt;CLIを終了する&lt;/h4&gt;" style="rounded=1;whiteSpace=wrap;html=1;" parent="BatHTG7nTybJTFZMMwU--1" vertex="1">
                    <mxGeometry x="600" y="280" width="165" height="60" as="geometry"/>
                </mxCell>
                <mxCell id="OicksIdeW0t63xlCzWEj-1" value="" style="edgeStyle=none;html=1;" parent="BatHTG7nTybJTFZMMwU--1" source="fFYv5AN2ROY5ySec23VN-0" target="OicksIdeW0t63xlCzWEj-0" edge="1">
                    <mxGeometry relative="1" as="geometry"/>
                </mxCell>
                <mxCell id="fFYv5AN2ROY5ySec23VN-0" value="&lt;b&gt;お気に入りリストの表示&lt;/b&gt;" style="rounded=0;whiteSpace=wrap;html=1;" parent="BatHTG7nTybJTFZMMwU--1" vertex="1">
                    <mxGeometry x="120" y="380" width="160" height="60" as="geometry"/>
                </mxCell>
                <mxCell id="nmG-UV3twUN_TDKd0fo6-6" value="" style="edgeStyle=none;html=1;" parent="BatHTG7nTybJTFZMMwU--1" source="OicksIdeW0t63xlCzWEj-0" edge="1">
                    <mxGeometry relative="1" as="geometry">
                        <mxPoint x="200" y="590" as="targetPoint"/>
                    </mxGeometry>
                </mxCell>
                <mxCell id="OicksIdeW0t63xlCzWEj-0" value="&lt;b&gt;お気に入りを選択&lt;/b&gt;" style="whiteSpace=wrap;html=1;rounded=0;" parent="BatHTG7nTybJTFZMMwU--1" vertex="1">
                    <mxGeometry x="120" y="480" width="160" height="60" as="geometry"/>
                </mxCell>
                <mxCell id="OicksIdeW0t63xlCzWEj-2" value="&lt;b&gt;お気に入りを削除&lt;/b&gt;" style="whiteSpace=wrap;html=1;rounded=0;" parent="BatHTG7nTybJTFZMMwU--1" vertex="1">
                    <mxGeometry x="320" y="590" width="160" height="60" as="geometry"/>
                </mxCell>
                <mxCell id="OicksIdeW0t63xlCzWEj-5" value="" style="endArrow=classic;html=1;entryX=-0.015;entryY=0.479;entryDx=0;entryDy=0;entryPerimeter=0;" parent="BatHTG7nTybJTFZMMwU--1" target="BatHTG7nTybJTFZMMwU--8" edge="1">
                    <mxGeometry width="50" height="50" relative="1" as="geometry">
                        <mxPoint x="600" y="730" as="sourcePoint"/>
                        <mxPoint x="100" y="200" as="targetPoint"/>
                        <Array as="points">
                            <mxPoint x="40" y="730"/>
                            <mxPoint x="40" y="620"/>
                            <mxPoint x="40" y="210"/>
                            <mxPoint x="110" y="210"/>
                        </Array>
                    </mxGeometry>
                </mxCell>
                <mxCell id="nmG-UV3twUN_TDKd0fo6-8" style="edgeStyle=none;html=1;" parent="BatHTG7nTybJTFZMMwU--1" source="OicksIdeW0t63xlCzWEj-6" edge="1">
                    <mxGeometry relative="1" as="geometry">
                        <mxPoint x="600" y="730" as="targetPoint"/>
                    </mxGeometry>
                </mxCell>
                <mxCell id="OicksIdeW0t63xlCzWEj-6" value="&lt;b&gt;キャンセル&lt;/b&gt;" style="rounded=0;whiteSpace=wrap;html=1;" parent="BatHTG7nTybJTFZMMwU--1" vertex="1">
                    <mxGeometry x="520" y="590" width="160" height="60" as="geometry"/>
                </mxCell>
                <mxCell id="OicksIdeW0t63xlCzWEj-9" value="" style="endArrow=classic;html=1;entryX=0.503;entryY=-0.048;entryDx=0;entryDy=0;entryPerimeter=0;" parent="BatHTG7nTybJTFZMMwU--1" target="OicksIdeW0t63xlCzWEj-6" edge="1">
                    <mxGeometry width="50" height="50" relative="1" as="geometry">
                        <mxPoint x="200" y="560" as="sourcePoint"/>
                        <mxPoint x="600" y="560" as="targetPoint"/>
                        <Array as="points">
                            <mxPoint x="600" y="560"/>
                        </Array>
                    </mxGeometry>
                </mxCell>
                <mxCell id="OicksIdeW0t63xlCzWEj-10" value="" style="endArrow=classic;html=1;" parent="BatHTG7nTybJTFZMMwU--1" edge="1">
                    <mxGeometry width="50" height="50" relative="1" as="geometry">
                        <mxPoint x="399.65999999999997" y="650" as="sourcePoint"/>
                        <mxPoint x="400" y="730" as="targetPoint"/>
                    </mxGeometry>
                </mxCell>
                <mxCell id="nmG-UV3twUN_TDKd0fo6-7" style="edgeStyle=none;html=1;" parent="BatHTG7nTybJTFZMMwU--1" source="nmG-UV3twUN_TDKd0fo6-2" edge="1">
                    <mxGeometry relative="1" as="geometry">
                        <mxPoint x="200" y="730" as="targetPoint"/>
                    </mxGeometry>
                </mxCell>
                <mxCell id="nmG-UV3twUN_TDKd0fo6-2" value="&lt;b&gt;LINEアプリに通知&lt;br&gt;&lt;/b&gt;" style="rounded=0;whiteSpace=wrap;html=1;" parent="BatHTG7nTybJTFZMMwU--1" vertex="1">
                    <mxGeometry x="120" y="590" width="160" height="60" as="geometry"/>
                </mxCell>
                <mxCell id="nmG-UV3twUN_TDKd0fo6-9" value="" style="endArrow=classic;html=1;" parent="BatHTG7nTybJTFZMMwU--1" target="OicksIdeW0t63xlCzWEj-2" edge="1">
                    <mxGeometry width="50" height="50" relative="1" as="geometry">
                        <mxPoint x="400" y="560" as="sourcePoint"/>
                        <mxPoint x="430" y="610" as="targetPoint"/>
                    </mxGeometry>
                </mxCell>
                <mxCell id="16fo8gJyBYiSSXtrmvcn-0" value="退出" style="text;html=1;align=center;verticalAlign=middle;resizable=0;points=[];autosize=1;strokeColor=none;fillColor=none;" parent="BatHTG7nTybJTFZMMwU--1" vertex="1">
                    <mxGeometry x="50" y="690" width="50" height="30" as="geometry"/>
                </mxCell>
            </root>
        </mxGraphModel>
    </diagram>
</mxfile>